{"title":"Dont.Look.Up.2009.480p.BRRip.XviD.AC3-LEGi0N","uid":5766813,"size":1576914305,"categoryP":"video","categoryS":"movies","magnet":"?xt=urn:btih:ff0fc732e6a2140cdec034c65818c3871126b3ef&amp;dn=Dont.Look.Up.2009.480p.BRRip.XviD.AC3-LEGi0N&amp;tr=udp%3A%2F%2Ftracker.openbittorrent.com%3A80&amp;tr=udp%3A%2F%2Fopen.demonii.com%3A1337&amp;tr=udp%3A%2F%2Ftracker.coppersurfer.tk%3A6969&amp;tr=udp%3A%2F%2Fexodus.desync.com%3A6969","seeders":0,"leechers":0,"uploader":"TvTeam","files":5,"time":1281942579,"description":". \n  &lt;a href=&quot;\nhttp://www.torrentday.com/&quot; rel=&quot;nofollow&quot; target=&quot;_NEW&quot;&gt;\nhttp://www.torrentday.com/&lt;/a&gt;        :     The Hottest Private Tracker On The Net!!!\n\n\n               www . TorrentDay . Com \n(((((((((((((= Enjoy No RAR releases =))))))))))))))))))))\n\n\n...................................NFO:....................................\n\n.[img]http://leetleech.org/images/27855991314987313242.png[/img] \n\n[b]Don't Look Up 2009 480p BRRip XviD AC3-LEGi0N \n\n[img]http://leetleech.org/images/48874973695367351744.png[/img]\n[color=red]General[/color]\nFormat:AVI \nFile size: 1.46 GiB\nDuration: 1h 26mn\nOverall bit rate: 2 413 Kbps\nIMDb Rating: 5.1/10   99 votes \nGenre: Horror\nRelease Date: N/A  \nIMDb Link: http://www.imdb.com/title/tt1034305/\nSource: 1080p BluRay x264-SSF  \n\n[color=red]Video[/color]\nFormat: MPEG-4 Visual\nFormat profile: Streaming Video@L1\nFormat settings, BVOP: Yes\nFormat settings, QPel: No\nFormat settings, GMC: No warppoints\nFormat settings, Matrix: Default (H.263)\nMuxing mode: Packed bitstream\nCodec ID: XVID\nBit rate: 1 955 Kbps\nWidth: 720 pixels\nHeight: 400 pixels\nDisplay aspect ratio: 16/9\nFrame rate: 23.976 fps\nResolution: 24 bits\nColorimetry: 4:2:0\nScan type: Progressive\nBits/(Pixel*Frame): 0.283\nStream size: 1.18 GiB (81%)\n\n[color=red]Audio[/color]\nFormat: AC-3\nBit rate mode: Constant\nBit rate: 448 Kbps\nChannel(s): 6 channels\nSampling rate: 48.0 KHz\nStream size: 277 MiB (19%)\nSubtitles: Hardcoded English for foreign parts\n\n[img]http://leetleech.org/images/89524873606771859129.png[/img]\nEvil spirits released from old celluloid causes a film crew to \nslowly go insane while in production on a new project.\n\n[img]http://leetleech.org/images/84434050717770922575.png[/img]\nEli Roth\t\t\nHenry Thomas\t\t\nKevin Corrigan\t\t\nElena Satine\t\t\nDaniela Sea\t... \tTami\nZelda Williams\t... \tMatya\nDavid Dayan Fisher\t... \tWadim\nLothaire Bluteau\t\t\nReshad Strik\t\t\nCarmen Chaplin\t\t\nAlma Saraci\t... \tCrina\nRachael Murphy\t... \tLila Kis\nRobert Towers\t... \tThe Little Man\nAjla Hodzic\t... \tChavi\nJack Dimich\t... \tRomanian Grip\nIan Fisher\t... \tGrip\nVitaliy Versace\t... \tRomanian Electric\nScott Alan\t... \tRomanian Police Officer\nSebastian &quot;Sebass&quot; Wolski\t... \tRomanian Camera Crew Assistant\nAlyssa Sutherland\t... \tClaire\nGil Darnell\t... \tRomanian Camera Assistant\nKyle Archer\t... \tEddie\nLaura Lance\t... \tChuchulina\nJustin Loyal\t... \tAmerican P.A.\nJohnny Mask\t... \tVillager\nBrian Henderson\t... \tRotino - Peter\nEric Stitt\t... \tRomanian 1st AC\nBianca Bonciu\t... \tRomanian Assistant\nGeorge Anton\t... \tVlad 'the Grip'\nKelly Devoto\t... \tMulli\nMaxwell Key\t... \tRomanian 2nd AC\nEva Kapusi\t... \tScript Supervisor   \n\n[color=red]GREETZ[/color]\nNoir | xXTHORNXx | bigimac | LUSi |\n\nkempas | KaN1vE | mike160 | skillz |\n\nLungbuster | Sheikh | DiLLoN1369 |\n\nFLAWL3SS | AND ALL P2P!\n\n[color=red]SAMPLE INCLUDED[/color][/b]\n\n[img]http://leetleech.org/images/95521316153253938506.png[/img]\n[img]http://leetleech.org/images/57909259075275604933.png[/img] \n[img]http://leetleech.org/images/75017506219623731962.png[/img] \n[img]http://leetleech.org/images/11025884548448808466.png[/img] \n[img]http://leetleech.org/images/22660667704805121425.png[/img]\n[img]http://leetleech.org/images/31198749469355388922.png[/img]\n[img]http://leetleech.org/images/05383288850546095411.png[/img]\n[img]http://leetleech.org/images/12755021538703799215.png[/img]","torrent":{"xt":"urn:btih:ff0fc732e6a2140cdec034c65818c3871126b3ef","amp;dn":"Dont.Look.Up.2009.480p.BRRip.XviD.AC3-LEGi0N","amp;tr":["udp%3A%2F%2Ftracker.openbittorrent.com%3A80","udp%3A%2F%2Fopen.demonii.com%3A1337","udp%3A%2F%2Ftracker.coppersurfer.tk%3A6969","udp%3A%2F%2Fexodus.desync.com%3A6969"],"infoHash":"ff0fc732e6a2140cdec034c65818c3871126b3ef","infoHashBuffer":{"type":"Buffer","data":[255,15,199,50,230,162,20,12,222,192,52,198,88,24,195,135,17,38,179,239]},"announce":[],"urlList":[]}}